<svg width="912" height="531" viewBox="0 0 912 531" fill="none" xmlns="http://www.w3.org/2000/svg">
<path d="M111.111 384.333C21.5554 294.778 -0.000130826 0 -0.000130826 0C49.9944 22.8398 103.714 36.4297 158.555 40.1111C250.222 47.8889 335.111 60.8889 385.333 110.667C461.667 187.556 480.889 296.667 437.111 373.889C389.111 298.667 191.222 190.778 191.222 190.778C333.222 292.333 496.444 485.111 503 509.778C509.555 534.444 462.555 535.333 455.222 522.556C447.889 509.778 419.667 458.333 388.555 427.333C311.111 482.333 192.778 466.111 111.111 384.333Z" fill="#49A010"/>
<path fill-rule="evenodd" clip-rule="evenodd" d="M911.719 103C911.719 103 895.552 324.083 828.386 391.25C767.136 452.583 678.386 464.75 620.302 423.5C598.582 445.143 578.739 480.072 571.663 492.528C571.138 493.453 570.683 494.254 570.302 494.917C564.802 504.5 529.552 503.833 534.469 485.333C539.386 466.833 661.802 322.25 768.302 246.083C768.302 246.083 619.886 327 583.886 383.417C551.052 325.5 565.469 243.667 622.719 186C644.889 164.027 676.065 151.609 711.984 143.921C715.338 151.058 722.592 156 731 156C739.516 156 746.847 150.932 750.143 143.647C751.816 146.83 755.155 149 759 149C764.523 149 769 144.523 769 139C769 137.745 768.769 136.544 768.347 135.437C770.181 137.616 772.929 139 776 139C779.789 139 783.087 136.892 784.783 133.785C787.448 133.544 790.121 133.311 792.802 133.083C833.933 130.322 874.223 120.13 911.719 103Z" fill="#3A7F0D"/>
<path fill-rule="evenodd" clip-rule="evenodd" d="M17.199 129.064C32.8758 220.044 61.6887 334.234 111.75 384.296C181.764 454.405 278.728 476.332 353.772 446.506C353.368 446.173 352.965 445.839 352.561 445.506C322.631 460.875 232.145 403.949 143.955 313.011C75.5809 242.506 27.6842 171.249 17.199 129.064Z" fill="#9B380F"/>
</svg>
