<svg width="800" height="800" viewBox="0 0 800 800" fill="none" xmlns="http://www.w3.org/2000/svg">
<g clip-path="url(#clip0_4_46)">
<path fill-rule="evenodd" clip-rule="evenodd" d="M433.022 26.3109L390.964 22.9665L381.833 137.803L199.546 138.131L199.622 180.321L290.305 180.158L300.527 212.857L240 276.3L272.401 307.212L325.652 251.395C329.549 251.439 333.522 250.217 336.933 247.533L385.411 209.39C386.902 208.217 388.141 206.888 389.137 205.455L404.056 206.641C405.197 209.04 406.919 211.252 409.258 213.081L468.76 259.601C472.379 262.431 476.619 263.62 480.728 263.407L532.242 311.659L574.219 266.844L510.262 206.937L518.468 179.747L610.461 179.582L610.385 137.392L424.162 137.727L433.022 26.3109Z" fill="#7DA527"/>
<path d="M706.72 302.483C676.701 255.508 636.49 216.255 589.252 187.441C627.603 179.282 635.499 172.955 639.603 167.569C642.494 163.777 643.723 159.225 643.056 154.745C639.575 131.053 606.633 121.39 529.363 121.39C495.37 121.39 461.716 123.448 442.597 124.863L449.995 17.1099C450.246 13.451 449.017 9.8487 446.583 7.10757C444.149 4.36643 440.717 2.72498 437.054 2.54304L385.506 0.0161838C378.018 -0.35577 371.643 5.38526 371.214 12.8648L364.721 126.456C346.993 125.409 314.624 123.816 281.779 123.816C188.738 123.816 169.991 135.864 163.591 148.887C161.262 153.621 161.307 159.103 163.704 163.931C166.882 170.323 173.448 177.462 209.366 188.294C161.998 217.488 121.754 257.206 91.9251 304.598C55.4979 362.477 36.2412 429.392 36.2412 498.103C36.2412 593.558 73.5741 672.234 144.205 725.625C208.573 774.283 297.025 800 400 800C502.975 800 591.427 774.287 655.795 725.625C726.43 672.234 763.759 593.558 763.759 498.103C763.747 428.511 744.029 360.864 706.72 302.483ZM281.779 151.11C329.418 151.11 376.086 154.535 376.551 154.571C380.206 154.838 383.804 153.633 386.557 151.224C389.31 148.81 390.976 145.394 391.186 141.743L397.691 27.941L421.82 29.1256L414.284 138.816C414.009 142.806 415.501 146.72 418.367 149.513C421.226 152.307 425.184 153.71 429.154 153.338C429.659 153.294 479.938 148.685 529.367 148.685C572.554 148.685 594.637 152.182 605.763 155.327C584.869 161.412 544.266 168.6 508.885 172.967C504.135 173.557 500.039 176.589 498.091 180.96C496.146 185.334 496.631 190.408 499.372 194.33C525.959 232.322 548.393 273.382 552.396 290.342C527.839 282.895 460.717 240.711 406.149 201.356C403.768 199.638 400.966 198.777 398.169 198.777C395.395 198.777 392.622 199.622 390.252 201.308C341.442 236.078 284.043 273.693 255.496 288.495C265.712 267.859 287.864 232.75 308.714 203.317C311.394 199.533 311.968 194.649 310.242 190.347C308.516 186.046 304.723 182.912 300.171 182.031C263.901 175.008 222.582 164.715 200.976 156.839C213.51 154.033 237.246 151.11 281.779 151.11ZM399.992 772.714C237.335 772.714 63.5273 700.575 63.5273 498.107C63.5273 370.862 133.794 256.216 247.05 198.34C257.198 200.782 266.78 202.925 274.668 204.627C268.688 213.473 261.112 224.919 253.604 236.931C221.325 288.576 220.965 301.452 223.164 309.47C224.575 314.612 227.951 318.603 232.673 320.705C234.937 321.716 237.46 322.225 240.169 322.225C246.161 322.225 258.629 322.225 335.288 271.906C361.208 254.894 385.922 237.719 398.14 229.14C410.002 237.509 433.662 253.968 459.056 270.265C526.796 313.747 548.26 318.781 558.513 318.781H558.521C566.32 318.777 571.078 315.655 573.698 313.032C586.325 300.409 581.024 276.916 555.412 231.942C548.038 218.996 540.275 206.62 534.061 197.055C537.914 196.493 542.139 195.854 546.602 195.155C546.655 195.183 546.703 195.215 546.752 195.239C663.768 252.051 736.469 368.101 736.469 498.103C736.456 700.575 562.649 772.714 399.992 772.714Z" fill="black"/>
<circle cx="286" cy="360" r="40" fill="black"/>
<circle cx="534" cy="360" r="40" fill="black"/>
<path d="M269 592.33C371.456 538.572 428.699 542.17 530.52 595.953" stroke="black" stroke-width="20"/>
</g>
<defs>
<clipPath id="clip0_4_46">
<rect width="800" height="800" fill="white"/>
</clipPath>
</defs>
</svg>
