<?xml version="1.0" encoding="iso-8859-1"?>
<!-- Uploaded to: SVG Repo, www.svgrepo.com, Generator: SVG Repo Mixer Tools -->
<!DOCTYPE svg PUBLIC "-//W3C//DTD SVG 1.1//EN" "http://www.w3.org/Graphics/SVG/1.1/DTD/svg11.dtd">
<svg fill="#000000" version="1.1" id="Capa_1" xmlns="http://www.w3.org/2000/svg" xmlns:xlink="http://www.w3.org/1999/xlink"
	 width="800px" height="800px" viewBox="0 0 197.874 197.874"
	 xml:space="preserve">
<g>
	<path d="M174.802,74.817c-7.425-11.619-17.371-21.328-29.055-28.455c9.486-2.018,11.439-3.583,12.454-4.915
		c0.715-0.938,1.019-2.064,0.854-3.172c-0.861-5.86-9.009-8.25-28.121-8.25c-8.408,0-16.732,0.509-21.461,0.859l1.83-26.652
		c0.062-0.905-0.242-1.796-0.844-2.474c-0.602-0.678-1.451-1.084-2.357-1.129l-12.75-0.625c-1.852-0.092-3.429,1.328-3.535,3.178
		l-1.606,28.096c-4.385-0.259-12.391-0.653-20.515-0.653c-23.013,0-27.65,2.98-29.233,6.201c-0.576,1.171-0.565,2.527,0.028,3.721
		c0.786,1.581,2.41,3.347,11.294,6.026C40.069,53.794,30.115,63.618,22.737,75.34c-9.01,14.316-13.773,30.867-13.773,47.862
		c0,23.61,9.234,43.07,26.704,56.276c15.921,12.035,37.799,18.396,63.269,18.396c25.47,0,47.348-6.36,63.269-18.396
		c17.471-13.206,26.704-32.666,26.704-56.276C188.907,105.989,184.03,89.257,174.802,74.817z M69.696,37.376
		c11.783,0,23.326,0.847,23.441,0.856c0.904,0.066,1.794-0.232,2.475-0.828c0.681-0.597,1.093-1.442,1.145-2.345l1.609-28.148
		l5.968,0.293l-1.864,27.131c-0.068,0.987,0.301,1.955,1.01,2.646c0.707,0.691,1.686,1.038,2.668,0.946
		c0.125-0.011,12.561-1.151,24.787-1.151c10.682,0,16.144,0.865,18.896,1.643c-5.168,1.505-15.211,3.283-23.962,4.363
		c-1.175,0.146-2.188,0.896-2.67,1.977c-0.481,1.082-0.361,2.337,0.317,3.307c6.576,9.397,12.125,19.553,13.115,23.748
		c-6.074-1.842-22.676-12.276-36.173-22.01c-0.589-0.425-1.282-0.638-1.974-0.638c-0.686,0-1.372,0.209-1.958,0.626
		c-12.073,8.6-26.27,17.904-33.331,21.565c2.527-5.104,8.006-13.788,13.163-21.068c0.663-0.936,0.805-2.144,0.378-3.208
		c-0.427-1.064-1.365-1.839-2.491-2.057c-8.971-1.737-19.191-4.283-24.535-6.231C52.81,38.099,58.681,37.376,69.696,37.376z
		 M98.935,191.125c-40.232,0-83.222-17.843-83.222-67.922c0-31.473,17.38-59.83,45.393-74.145c2.51,0.604,4.88,1.134,6.831,1.555
		c-1.479,2.188-3.353,5.019-5.21,7.99c-7.984,12.774-8.073,15.959-7.529,17.942c0.349,1.272,1.184,2.259,2.352,2.779
		c0.56,0.25,1.184,0.376,1.854,0.376c1.482,0,4.566,0,23.527-12.446c6.411-4.208,12.524-8.456,15.546-10.578
		c2.934,2.07,8.786,6.141,15.067,10.172c16.755,10.755,22.064,12,24.6,12h0.002c1.929-0.001,3.106-0.773,3.754-1.422
		c3.123-3.122,1.812-8.933-4.523-20.057c-1.824-3.202-3.744-6.263-5.281-8.629c0.953-0.139,1.998-0.297,3.102-0.47
		c0.013,0.007,0.025,0.015,0.037,0.021c28.943,14.052,46.925,42.756,46.925,74.911C182.157,173.282,139.167,191.125,98.935,191.125z
		"/>
</g>
</svg>
