<svg height="100" width="100" version="1.1" id="Layer_1" xmlns="http://www.w3.org/2000/svg" xmlns:xlink="http://www.w3.org/1999/xlink"
     viewBox="0 0 504.123 504.123" xml:space="preserve"><style>.spinner_GuJz{transform-origin:center;animation:spinner_STY6 3s linear infinite}@keyframes spinner_STY6{100%{transform:rotate(360deg)}}</style>
  <g class="spinner_GuJz">
<path style="fill:#3A7F0D;" d="M235.733,0c0,0,29.594,22.662-10.87,73.169c-22,27.427-27.475,68.017,23.662,95.815
	c-9.082-20.48-24.639-68.277,9.389-101.155c0,0-28.861,35.415,4.435,99.864c20.543-8.444,66.111-32.689,56.737-79.045
	C306.696,27.388,235.733,0,235.733,0z"/>
    <path style="fill:#49A010;" d="M262.215,167.416c30.901-39.66,38.187-94.46,15.927-141.816C256.922,8.2,235.725,0,235.725,0
	s29.594,22.662-10.87,73.169c-22,27.427-27.475,68.017,23.662,95.815c-9.082-20.48-24.639-68.277,9.389-101.155
	C257.914,67.828,229.148,103.14,262.215,167.416z"/>
    <path style="fill:#3A7F0D;" d="M268.39,504.123c0,0-29.601-22.662,10.87-73.169c21.992-27.427,27.475-68.017-23.67-95.815
	c9.09,20.48,24.647,68.261-9.381,101.14c0,0,28.853-35.399-4.435-99.848c-20.543,8.444-66.103,32.689-56.737,79.045
	C197.427,476.735,268.39,504.123,268.39,504.123z"/>
    <path style="fill:#49A010;" d="M241.908,336.691c-30.909,39.66-38.187,94.476-15.935,141.816
	c21.228,17.416,42.425,25.616,42.425,25.616s-29.601-22.662,10.87-73.169c21.992-27.427,27.475-68.017-23.67-95.815
	c9.09,20.48,24.647,68.261-9.381,101.14C246.209,436.279,274.976,400.967,241.908,336.691z"/>
    <path style="fill:#3A7F0D;" d="M418.745,62.275c0,0,4.907,36.951-59.431,44.064c-34.942,3.828-67.513,28.664-51.011,84.496
	c8.05-20.921,30.846-65.709,78.155-64.89c0,0-45.442,4.632-67.466,73.736c20.504,8.554,69.853,23.631,96.004-15.77
	C449.56,131.828,418.745,62.275,418.745,62.275z"/>
    <path style="fill:#49A010;" d="M319.094,199.396c49.892-6.199,93.791-39.802,111.537-89.033
	c-2.702-27.309-11.886-48.089-11.886-48.089s4.907,36.951-59.431,44.064c-34.942,3.828-67.513,28.664-51.011,84.496
	c8.05-20.921,30.846-65.709,78.155-64.89C386.458,125.936,341.157,130.568,319.094,199.396z"/>
    <path style="fill:#3A7F0D;" d="M85.378,441.832c0,0-4.915-36.935,59.424-44.048c34.942-3.844,67.521-28.664,51.019-84.496
	c-8.058,20.905-30.846,65.709-78.155,64.89c0,0,45.442-4.632,67.458-73.736c-20.496-8.57-69.853-23.631-96.004,15.754
	C54.563,372.295,85.378,441.832,85.378,441.832z"/>
    <path style="fill:#49A010;" d="M185.029,304.727c-49.892,6.199-93.798,39.802-111.537,89.017
	c2.71,27.325,11.886,48.089,11.886,48.089s-4.915-36.943,59.424-44.048c34.942-3.844,67.521-28.664,51.019-84.496
	c-8.058,20.905-30.846,65.709-78.155,64.89C117.665,378.187,162.966,373.555,185.029,304.727z"/>
    <path style="fill:#3A7F0D;" d="M504.123,235.725c0,0-22.662,29.601-73.177-10.862c-27.427-22-68.009-27.475-95.815,23.678
	c20.488-9.106,68.277-24.647,101.148,9.366c0,0-35.399-28.861-99.848,4.443c8.444,20.535,32.689,66.111,79.045,56.737
	C476.727,306.696,504.123,235.725,504.123,235.725z"/>
    <path style="fill:#49A010;" d="M336.699,262.215c39.66,30.893,94.452,38.187,141.816,15.919
	c17.4-21.213,25.608-42.409,25.608-42.409s-22.662,29.601-73.177-10.862c-27.427-22-68.009-27.475-95.815,23.678
	c20.488-9.106,68.277-24.647,101.148,9.366C436.279,257.906,400.951,229.155,336.699,262.215z"/>
    <path style="fill:#3A7F0D;" d="M0,268.383c0,0,22.654-29.601,73.169,10.878c27.412,21.984,68.017,27.475,95.815-23.678
	c-20.48,9.106-68.277,24.647-101.14-9.381c0,0,35.399,28.861,99.832-4.427c-8.428-20.551-32.673-66.111-79.029-56.737
	C27.388,197.427,0,268.383,0,268.383z"/>
    <path style="fill:#49A010;" d="M167.416,241.892c-39.66-30.893-94.46-38.172-141.816-15.911C8.2,247.217,0,268.383,0,268.383
	s22.654-29.601,73.169,10.878c27.412,21.984,68.017,27.475,95.815-23.678c-20.48,9.106-68.277,24.647-101.14-9.381
	C67.844,246.201,103.148,274.983,167.416,241.892z"/>
    <path style="fill:#3A7F0D;" d="M441.84,418.737c0,0-36.943,4.907-44.056-59.431c-3.836-34.942-28.664-67.505-84.496-51.003
	c20.913,8.042,65.709,30.846,64.89,78.155c0,0-4.632-45.45-73.736-67.474c-8.562,20.512-23.639,69.86,15.77,96.012
	C372.295,449.552,441.84,418.737,441.84,418.737z"/>
    <path style="fill:#49A010;" d="M304.727,319.094c6.199,49.892,39.802,93.783,89.017,111.537
	c27.309-2.71,48.096-11.894,48.096-11.894s-36.943,4.907-44.056-59.431c-3.836-34.942-28.664-67.505-84.496-51.003
	c20.913,8.042,65.709,30.846,64.89,78.155C378.187,386.458,373.547,341.157,304.727,319.094z"/>
    <path style="fill:#3A7F0D;" d="M62.283,85.37c0,0,36.935-4.907,44.04,59.431c3.844,34.942,28.68,67.521,84.504,51.019
	c-20.913-8.042-65.701-30.846-64.882-78.155c0,0,4.632,45.434,73.736,67.458c8.554-20.496,23.631-69.86-15.762-96.012
	C131.828,54.556,62.283,85.37,62.283,85.37z"/>
    <path style="fill:#49A010;" d="M199.396,185.029c-6.199-49.892-39.81-93.798-89.033-111.537
	C83.046,76.201,62.283,85.37,62.283,85.37s36.935-4.907,44.04,59.431c3.844,34.942,28.68,67.521,84.504,51.019
	c-20.913-8.042-65.701-30.846-64.882-78.155C125.936,117.665,130.56,162.966,199.396,185.029z"/>
  </g>
</svg>
